<svg xmlns="http://www.w3.org/2000/svg" width="483.74" height="76.777" viewBox="0 0 483.74 76.777"><defs><style>.a{fill:#c5004b;}</style></defs><path class="a" d="M12.645,25.93h0A12.633,12.633,0,0,1,25.29,13.284H44.24V6.98H25.29A18.942,18.942,0,0,0,6.341,25.93h0v18.95H0v6.3H6.341v6.522h6.3V51.184h6.3v-6.3h-6.3Z" transform="translate(0 18.31)"/><path class="a" d="M52.658,12.645,40.013,0,27.368,12.645h9.493V31.631A12.633,12.633,0,0,1,24.216,44.276H5.23v6.3H24.18a18.962,18.962,0,0,0,18.95-18.587h.036v-.362h0V12.645Z" transform="translate(13.72)"/><g transform="translate(90.038 10.834)"><path class="a" d="M25.43,24.417a.5.5,0,0,1-.58-.58V20.975a.5.5,0,0,1,.58-.58H28.4V7.316H25.43a.5.5,0,0,1-.58-.58V3.91a.5.5,0,0,1,.58-.58H36.118c.4,0,.616.181.616.58V6.772a.544.544,0,0,1-.616.58H33.147v13.08h2.971c.4,0,.616.181.616.58v2.862c0,.4-.217.58-.616.58H25.43Z" transform="translate(-24.85 -2.098)"/><path class="a" d="M44.8,5.451a.5.5,0,0,1,.58.58V20.415a6.485,6.485,0,0,1-2.21,5.145,8.54,8.54,0,0,1-5.833,1.957A9.249,9.249,0,0,1,31.9,25.995a6.112,6.112,0,0,1-2.645-4.022c-.109-.362.072-.58.543-.58h3.37a.7.7,0,0,1,.652.435,2.478,2.478,0,0,0,1.232,1.413,4.345,4.345,0,0,0,2.21.543,3.505,3.505,0,0,0,2.572-.942,3.275,3.275,0,0,0,.978-2.5V19.183a6.756,6.756,0,0,1-4.2,1.3,7.789,7.789,0,0,1-5.688-2.174,7.48,7.48,0,0,1-2.21-5.58,7.479,7.479,0,0,1,2.21-5.58A7.789,7.789,0,0,1,36.609,4.98a6.865,6.865,0,0,1,4.275,1.377V6.031a.5.5,0,0,1,.58-.58ZM37.043,16.937A3.636,3.636,0,0,0,39.8,15.777a4.5,4.5,0,0,0,1.051-3.044A4.351,4.351,0,0,0,39.761,9.69a3.488,3.488,0,0,0-2.717-1.159,3.618,3.618,0,0,0-2.79,1.2,4.322,4.322,0,0,0-1.087,3.007,4.351,4.351,0,0,0,1.087,3.044A3.606,3.606,0,0,0,37.043,16.937Z" transform="translate(-14.724 2.23)"/><path class="a" d="M52.676,19.2a.536.536,0,0,1-.435.616,7.833,7.833,0,0,1-2.283.362q-2.935,0-4.022-1.739a7.279,7.279,0,0,1-5.109,1.739,6.276,6.276,0,0,1-6.558-6.631V5.69a.5.5,0,0,1,.58-.58h3.37a.5.5,0,0,1,.58.58v7.246a3.468,3.468,0,0,0,.87,2.464,3.028,3.028,0,0,0,2.319.942,3.232,3.232,0,0,0,2.391-.87,3.085,3.085,0,0,0,.906-2.355V5.69a.5.5,0,0,1,.58-.58H49.27a.517.517,0,0,1,.58.58v9.457c0,.8.326,1.159.978,1.159a6.654,6.654,0,0,0,.942-.072c.4-.036.616.109.652.471Z" transform="translate(-0.139 2.571)"/><path class="a" d="M59.383,19.572a.514.514,0,0,1-.471.616,7.791,7.791,0,0,1-2.246.362q-2.772,0-3.8-1.848a7.417,7.417,0,0,1-5.073,1.848A7.731,7.731,0,0,1,42.1,18.376a7.451,7.451,0,0,1-2.21-5.616A7.4,7.4,0,0,1,42.1,7.144,7.789,7.789,0,0,1,47.789,4.97a6.865,6.865,0,0,1,4.275,1.377v-.29a.5.5,0,0,1,.58-.58h3.3a.5.5,0,0,1,.58.58v9.457c0,.8.326,1.159.978,1.159a6.653,6.653,0,0,0,.942-.072c.4-.036.616.109.616.471Zm-11.232-2.5a3.542,3.542,0,0,0,2.754-1.2,4.5,4.5,0,0,0,1.051-3.044A4.532,4.532,0,0,0,50.9,9.753a3.49,3.49,0,0,0-2.754-1.2,3.566,3.566,0,0,0-2.79,1.2,4.381,4.381,0,0,0-1.087,3.08,4.29,4.29,0,0,0,1.087,3.044A3.618,3.618,0,0,0,48.151,17.072Z" transform="translate(14.604 2.204)"/><path class="a" d="M50.6,25.754a5.324,5.324,0,0,1-3.37-.978A3.084,3.084,0,0,1,46,22.167V3.543c0-.362.181-.543.58-.543h3.37a.5.5,0,0,1,.58.58V20.754c0,.761.326,1.159,1.015,1.159a6.556,6.556,0,0,0,.906-.072c.4-.036.616.109.616.471l.29,2.428a.53.53,0,0,1-.471.652A7.481,7.481,0,0,1,50.6,25.754Z" transform="translate(30.632 -2.964)"/><path class="a" d="M68.027,24.766c.072.326-.072.543-.435.616a7.88,7.88,0,0,1-2.319.362,3.955,3.955,0,0,1-3.8-1.884,6.98,6.98,0,0,1-5,1.884A7.731,7.731,0,0,1,50.78,23.57a7.451,7.451,0,0,1-2.21-5.616,7.4,7.4,0,0,1,2.21-5.616,7.789,7.789,0,0,1,5.688-2.174,6.98,6.98,0,0,1,4.2,1.3V3.57a.5.5,0,0,1,.58-.58h3.37a.5.5,0,0,1,.58.58V20.744c0,.761.326,1.159.978,1.159a6.108,6.108,0,0,0,.906-.072c.435-.036.652.109.652.471Zm-11.16-2.5a3.542,3.542,0,0,0,2.754-1.2,4.5,4.5,0,0,0,1.051-3.044,4.532,4.532,0,0,0-1.051-3.08,3.49,3.49,0,0,0-2.754-1.2,3.566,3.566,0,0,0-2.79,1.2,4.381,4.381,0,0,0-1.087,3.08,4.29,4.29,0,0,0,1.087,3.044A3.514,3.514,0,0,0,56.867,22.266Z" transform="translate(37.373 -2.99)"/><path class="a" d="M73.973,19.572a.514.514,0,0,1-.471.616,7.792,7.792,0,0,1-2.246.362q-2.772,0-3.8-1.848a7.417,7.417,0,0,1-5.073,1.848,7.731,7.731,0,0,1-5.689-2.174,7.451,7.451,0,0,1-2.21-5.616,7.4,7.4,0,0,1,2.21-5.616A7.789,7.789,0,0,1,62.379,4.97a6.865,6.865,0,0,1,4.275,1.377v-.29a.5.5,0,0,1,.58-.58h3.3a.5.5,0,0,1,.58.58v9.457c0,.8.326,1.159.978,1.159a6.653,6.653,0,0,0,.942-.072c.4-.036.616.109.616.471Zm-11.2-2.5a3.542,3.542,0,0,0,2.754-1.2,4.5,4.5,0,0,0,1.051-3.044,4.532,4.532,0,0,0-1.051-3.08,3.49,3.49,0,0,0-2.754-1.2,3.566,3.566,0,0,0-2.79,1.2,4.381,4.381,0,0,0-1.087,3.08,4.29,4.29,0,0,0,1.087,3.044A3.514,3.514,0,0,0,62.777,17.072Z" transform="translate(52.877 2.204)"/><path class="a" d="M79.857,24.766c.072.326-.072.543-.435.616a7.88,7.88,0,0,1-2.319.362,3.955,3.955,0,0,1-3.8-1.884,6.98,6.98,0,0,1-5,1.884A7.731,7.731,0,0,1,62.61,23.57a7.451,7.451,0,0,1-2.21-5.616,7.4,7.4,0,0,1,2.21-5.616A7.789,7.789,0,0,1,68.3,10.164a6.98,6.98,0,0,1,4.2,1.3V3.57a.5.5,0,0,1,.58-.58h3.406a.5.5,0,0,1,.58.58V20.744c0,.761.326,1.159.978,1.159a6.108,6.108,0,0,0,.906-.072c.435-.036.652.109.652.471Zm-11.2-2.5a3.542,3.542,0,0,0,2.754-1.2,4.5,4.5,0,0,0,1.051-3.044,4.532,4.532,0,0,0-1.051-3.08,3.49,3.49,0,0,0-2.754-1.2,3.566,3.566,0,0,0-2.79,1.2,4.381,4.381,0,0,0-1.087,3.08,4.29,4.29,0,0,0,1.087,3.044A3.618,3.618,0,0,0,68.661,22.266Z" transform="translate(68.406 -2.99)"/><path class="a" d="M78.063,25.193A11.441,11.441,0,0,1,71.5,23.418a6.685,6.685,0,0,1-3.044-4.783c-.072-.4.109-.616.543-.616h3.587a.611.611,0,0,1,.616.471,3.453,3.453,0,0,0,1.7,2.1,6.582,6.582,0,0,0,3.261.8,5.1,5.1,0,0,0,2.645-.616,1.943,1.943,0,0,0,.978-1.7,1.89,1.89,0,0,0-.688-1.522,4.753,4.753,0,0,0-1.775-.833c-.725-.181-1.558-.326-2.428-.471a17.884,17.884,0,0,1-2.681-.616,9.773,9.773,0,0,1-2.428-1.015,4.478,4.478,0,0,1-1.775-1.884,5.617,5.617,0,0,1-.761-3.007,5.624,5.624,0,0,1,2.319-4.71A9.729,9.729,0,0,1,77.664,3.2a10.74,10.74,0,0,1,6.015,1.63,6.438,6.438,0,0,1,2.971,4.42c.109.362-.072.58-.543.58H82.483a.7.7,0,0,1-.652-.435A3.1,3.1,0,0,0,80.49,7.584a4.671,4.671,0,0,0-2.573-.616,4.318,4.318,0,0,0-2.572.688,2.118,2.118,0,0,0-.978,1.812,2.031,2.031,0,0,0,.906,1.775,5.35,5.35,0,0,0,2.319.87c.906.145,1.92.362,2.971.616a22,22,0,0,1,2.971.906,4.918,4.918,0,0,1,2.319,1.812,5.536,5.536,0,0,1,.906,3.3,5.662,5.662,0,0,1-2.391,4.746A10.574,10.574,0,0,1,78.063,25.193Z" transform="translate(89.512 -2.439)"/><path class="a" d="M92.806,19.2a.536.536,0,0,1-.435.616,7.833,7.833,0,0,1-2.283.362q-2.935,0-4.022-1.739a7.279,7.279,0,0,1-5.109,1.739,6.362,6.362,0,0,1-4.71-1.812A6.255,6.255,0,0,1,74.4,13.552V5.69a.5.5,0,0,1,.58-.58h3.37a.5.5,0,0,1,.58.58v7.246A3.468,3.468,0,0,0,79.8,15.4a3.028,3.028,0,0,0,2.319.942,3.231,3.231,0,0,0,2.391-.87,3.085,3.085,0,0,0,.906-2.355V5.69a.5.5,0,0,1,.58-.58H89.4a.517.517,0,0,1,.58.58v9.457c0,.8.326,1.159.978,1.159a6.655,6.655,0,0,0,.942-.072c.4-.036.616.109.652.471Z" transform="translate(105.132 2.571)"/><path class="a" d="M87.394,20.56a9.489,9.489,0,0,1-5.145-1.268,4.736,4.736,0,0,1-2.319-3.478c-.072-.4.145-.616.58-.616l2.935.036a.775.775,0,0,1,.652.435c.435,1.087,1.522,1.63,3.3,1.63a3.6,3.6,0,0,0,1.775-.362,1.12,1.12,0,0,0,.688-.978c0-.507-.326-.906-.978-1.123a11.129,11.129,0,0,0-2.319-.507,24.468,24.468,0,0,1-2.754-.507,4.793,4.793,0,0,1-2.355-1.341,3.819,3.819,0,0,1-.978-2.754,4.04,4.04,0,0,1,1.848-3.442,8.2,8.2,0,0,1,4.855-1.3,8.79,8.79,0,0,1,4.746,1.2,4.4,4.4,0,0,1,2.21,3.152c.072.4-.109.616-.543.616H90.619A.672.672,0,0,1,90,9.582a2.328,2.328,0,0,0-1.051-1.087,3.843,3.843,0,0,0-1.739-.4,3.392,3.392,0,0,0-1.7.362.987.987,0,0,0-.652.906,1.277,1.277,0,0,0,.978,1.2,9.635,9.635,0,0,0,2.391.58,25.258,25.258,0,0,1,2.79.543,4.958,4.958,0,0,1,2.355,1.341,3.82,3.82,0,0,1,.978,2.754,3.967,3.967,0,0,1-1.884,3.478A8.691,8.691,0,0,1,87.394,20.56Z" transform="translate(119.602 2.23)"/><path class="a" d="M93.934,23.393A6.277,6.277,0,0,1,89.3,21.726a6.18,6.18,0,0,1-1.7-4.565V11.944H84.84a.5.5,0,0,1-.58-.58v-2.5a.5.5,0,0,1,.58-.58h2.754V4.48a.517.517,0,0,1,.58-.58h3.37a.5.5,0,0,1,.58.58V8.32h4.746a.517.517,0,0,1,.58.58v2.5a.5.5,0,0,1-.58.58H92.122v5.073a2.35,2.35,0,0,0,.688,1.812,2.468,2.468,0,0,0,1.812.652,9.087,9.087,0,0,0,2.246-.254q.6-.109.652.435l.4,2.573a.6.6,0,0,1-.435.652A16.824,16.824,0,0,1,93.934,23.393Z" transform="translate(130.997 -0.603)"/><path class="a" d="M108.063,19.572a.514.514,0,0,1-.471.616,7.792,7.792,0,0,1-2.246.362q-2.772,0-3.8-1.848a7.417,7.417,0,0,1-5.073,1.848,7.731,7.731,0,0,1-5.689-2.174,7.451,7.451,0,0,1-2.21-5.616,7.4,7.4,0,0,1,2.21-5.616A7.789,7.789,0,0,1,96.469,4.97a6.864,6.864,0,0,1,4.275,1.377v-.29a.5.5,0,0,1,.58-.58h3.3a.5.5,0,0,1,.58.58v9.457c0,.8.326,1.159.978,1.159a6.653,6.653,0,0,0,.942-.072c.4-.036.616.109.616.471Zm-11.2-2.5a3.542,3.542,0,0,0,2.754-1.2,4.5,4.5,0,0,0,1.051-3.044,4.532,4.532,0,0,0-1.051-3.08,3.49,3.49,0,0,0-2.754-1.2,3.565,3.565,0,0,0-2.79,1.2,4.381,4.381,0,0,0-1.087,3.08,4.29,4.29,0,0,0,1.087,3.044A3.618,3.618,0,0,0,96.867,17.072Z" transform="translate(142.303 2.204)"/><path class="a" d="M105.882,4.98a6.447,6.447,0,0,1,4.746,1.812,6.561,6.561,0,0,1,1.812,4.819v7.862a.5.5,0,0,1-.58.58h-3.37c-.4,0-.616-.181-.616-.58V12.226a3.468,3.468,0,0,0-.87-2.464,3.028,3.028,0,0,0-2.319-.942,3.378,3.378,0,0,0-2.428.87,3.085,3.085,0,0,0-.906,2.355v7.391a.5.5,0,0,1-.58.58H97.4a.5.5,0,0,1-.58-.58V10.053a1.02,1.02,0,0,0-1.159-1.159c-.072,0-.29.036-.652.072-.435,0-.652-.145-.652-.471v-2.5a.634.634,0,0,1,.435-.652,5.7,5.7,0,0,1,2.174-.362,3.743,3.743,0,0,1,3.623,1.884A7.369,7.369,0,0,1,105.882,4.98Z" transform="translate(157.492 2.23)"/><path class="a" d="M109.55,23.393a6.277,6.277,0,0,1-4.638-1.667,6.179,6.179,0,0,1-1.7-4.565V11.944h-2.79a.5.5,0,0,1-.58-.58v-2.5a.5.5,0,0,1,.58-.58h2.754V4.48a.517.517,0,0,1,.58-.58h3.37a.5.5,0,0,1,.58.58V8.32h4.746a.517.517,0,0,1,.58.58v2.5a.5.5,0,0,1-.58.58H107.7v5.073a2.35,2.35,0,0,0,.688,1.812,2.468,2.468,0,0,0,1.812.652,9.087,9.087,0,0,0,2.246-.254q.6-.109.652.435l.4,2.573a.6.6,0,0,1-.435.652A16.223,16.223,0,0,1,109.55,23.393Z" transform="translate(171.867 -0.603)"/><path class="a" d="M108.842,7.275a2.907,2.907,0,0,1-3.841,0A2.357,2.357,0,0,1,104.24,5.5,2.357,2.357,0,0,1,105,3.725a2.907,2.907,0,0,1,3.841,0A2.3,2.3,0,0,1,109.6,5.5,2.357,2.357,0,0,1,108.842,7.275Zm-3.623,18.008a.5.5,0,0,1-.58-.58V11.225a.5.5,0,0,1,.58-.58h3.37a.5.5,0,0,1,.58.58V24.667a.5.5,0,0,1-.58.58h-3.37Z" transform="translate(183.41 -2.964)"/><path class="a" d="M113.23,19.722a.619.619,0,0,1-.616-.435l-6.3-13.515q-.217-.652.435-.652h3.587a.634.634,0,0,1,.652.435l3.913,8.732,3.986-8.732a.619.619,0,0,1,.616-.435h3.551a.494.494,0,0,1,.435.181.531.531,0,0,1,0,.471l-6.3,13.515a.619.619,0,0,1-.616.435Z" transform="translate(188.696 2.598)"/><path class="a" d="M130.983,19.572a.514.514,0,0,1-.471.616,7.792,7.792,0,0,1-2.246.362q-2.772,0-3.8-1.848a7.417,7.417,0,0,1-5.073,1.848,7.731,7.731,0,0,1-5.689-2.174,7.451,7.451,0,0,1-2.21-5.616,7.4,7.4,0,0,1,2.21-5.616,7.789,7.789,0,0,1,5.689-2.174,6.865,6.865,0,0,1,4.275,1.377v-.29a.5.5,0,0,1,.58-.58h3.3a.5.5,0,0,1,.58.58v9.457c0,.8.326,1.159.978,1.159a6.652,6.652,0,0,0,.942-.072c.4-.036.616.109.616.471Zm-11.2-2.5a3.542,3.542,0,0,0,2.754-1.2,4.5,4.5,0,0,0,1.051-3.044,4.532,4.532,0,0,0-1.051-3.08,3.49,3.49,0,0,0-2.754-1.2,3.565,3.565,0,0,0-2.79,1.2,4.381,4.381,0,0,0-1.087,3.08A4.29,4.29,0,0,0,117,15.876,3.565,3.565,0,0,0,119.787,17.072Z" transform="translate(202.428 2.204)"/></g><g transform="translate(90.4 46.957)"><path class="a" d="M33.211,30.5a8.446,8.446,0,0,1-5.978-2.138A7.318,7.318,0,0,1,24.95,22.75,7.423,7.423,0,0,1,27.16,17.1a8.057,8.057,0,0,1,5.8-2.138,7.688,7.688,0,0,1,5.725,2.1,7.537,7.537,0,0,1,2.138,5.58v1.051a.568.568,0,0,1-.616.507h-10.8a3.738,3.738,0,0,0,1.449,2.138,4.31,4.31,0,0,0,2.536.8,3.124,3.124,0,0,0,2.464-.906,1.1,1.1,0,0,1,.725-.29h3.37a.626.626,0,0,1,.471.181.377.377,0,0,1,0,.435,5.993,5.993,0,0,1-2.681,2.935A10.157,10.157,0,0,1,33.211,30.5ZM29.3,21.482h7.21a3.317,3.317,0,0,0-.978-2.319,3.438,3.438,0,0,0-2.428-.87,3.752,3.752,0,0,0-2.5.87A3.376,3.376,0,0,0,29.3,21.482Z" transform="translate(-24.95 -7.713)"/><path class="a" d="M41.372,14.95a6.447,6.447,0,0,1,4.746,1.812,6.561,6.561,0,0,1,1.812,4.819v7.862a.5.5,0,0,1-.58.58h-3.37c-.4,0-.616-.181-.616-.58V22.2a3.468,3.468,0,0,0-.87-2.464,3.028,3.028,0,0,0-2.319-.942,3.252,3.252,0,0,0-2.428.906,3.085,3.085,0,0,0-.906,2.355v7.391a.5.5,0,0,1-.58.58h-3.37a.5.5,0,0,1-.58-.58V19.986a1.02,1.02,0,0,0-1.159-1.159c-.072,0-.29.036-.652.072-.435,0-.652-.145-.652-.471V15.965a.607.607,0,0,1,.435-.652,5.7,5.7,0,0,1,2.174-.362,3.743,3.743,0,0,1,3.623,1.884A7.369,7.369,0,0,1,41.372,14.95Z" transform="translate(-12.096 -7.74)"/><path class="a" d="M45.014,33.389a6.277,6.277,0,0,1-4.638-1.667,6.179,6.179,0,0,1-1.7-4.565V21.94H35.92a.5.5,0,0,1-.58-.58v-2.5a.517.517,0,0,1,.58-.58h2.754V14.44a.5.5,0,0,1,.58-.58h3.37a.5.5,0,0,1,.58.58V18.28h4.746a.517.517,0,0,1,.58.58v2.5a.5.5,0,0,1-.58.58H43.166v5.073a2.35,2.35,0,0,0,.688,1.812,2.468,2.468,0,0,0,1.812.652,9.087,9.087,0,0,0,2.246-.254q.6-.109.652.435l.4,2.573a.6.6,0,0,1-.435.652A12.853,12.853,0,0,1,45.014,33.389Z" transform="translate(2.306 -10.599)"/><path class="a" d="M52.791,15.219a.508.508,0,0,1,.435.652l-.4,2.9a.49.49,0,0,1-.652.435,7.933,7.933,0,0,0-1.667-.145,4.1,4.1,0,0,0-2.862,1.051,3.687,3.687,0,0,0-1.123,2.862v6.486a.5.5,0,0,1-.58.58h-3.37a.5.5,0,0,1-.58-.58V20a1.02,1.02,0,0,0-1.159-1.159c-.072,0-.29.036-.652.072-.435,0-.652-.145-.652-.471V15.98a.607.607,0,0,1,.435-.652,6.226,6.226,0,0,1,2.174-.362A3.649,3.649,0,0,1,45.8,17.03a6.245,6.245,0,0,1,4.891-2.065A5.843,5.843,0,0,1,52.791,15.219Z" transform="translate(13.297 -7.719)"/><path class="a" d="M52.131,30.5a8.446,8.446,0,0,1-5.978-2.138A7.318,7.318,0,0,1,43.87,22.75,7.423,7.423,0,0,1,46.08,17.1a8.057,8.057,0,0,1,5.8-2.138,7.688,7.688,0,0,1,5.725,2.1,7.537,7.537,0,0,1,2.138,5.58v1.051a.568.568,0,0,1-.616.507h-10.8a3.738,3.738,0,0,0,1.449,2.138,4.31,4.31,0,0,0,2.536.8,3.124,3.124,0,0,0,2.464-.906,1.1,1.1,0,0,1,.725-.29h3.37a.626.626,0,0,1,.471.181.377.377,0,0,1,0,.435,5.993,5.993,0,0,1-2.681,2.935A10.157,10.157,0,0,1,52.131,30.5Zm-3.913-9.022h7.21a3.317,3.317,0,0,0-.978-2.319,3.438,3.438,0,0,0-2.428-.87,3.752,3.752,0,0,0-2.5.87A3.517,3.517,0,0,0,48.218,21.482Z" transform="translate(24.682 -7.713)"/><path class="a" d="M51.856,34.387c-.4,0-.616-.181-.616-.58V13.88a.544.544,0,0,1,.616-.58H54.32a.785.785,0,0,1,.688.362l7.681,11.7,7.681-11.7a.785.785,0,0,1,.688-.362H73.6a.5.5,0,0,1,.58.58V33.808a.5.5,0,0,1-.58.58H70.008a.5.5,0,0,1-.58-.58V22.358l-5.217,8.08a.71.71,0,0,1-.688.362h-1.63a.785.785,0,0,1-.688-.362L55.95,22.249V33.771a.5.5,0,0,1-.58.58H51.856Z" transform="translate(44.015 -12.068)"/><path class="a" d="M76.924,29.184a.536.536,0,0,1-.435.616,7.833,7.833,0,0,1-2.283.362q-2.935,0-4.022-1.739a7.279,7.279,0,0,1-5.109,1.739,6.362,6.362,0,0,1-4.71-1.812,6.6,6.6,0,0,1-1.775-4.819V15.67a.517.517,0,0,1,.58-.58h3.37a.5.5,0,0,1,.58.58v7.246a3.469,3.469,0,0,0,.87,2.464,3.028,3.028,0,0,0,2.319.942,3.11,3.11,0,0,0,3.3-3.261V15.67a.517.517,0,0,1,.58-.58H73.59a.517.517,0,0,1,.58.58v9.457c0,.8.326,1.159.978,1.159a6.654,6.654,0,0,0,.942-.072c.4-.036.616.109.652.471Z" transform="translate(63.296 -7.372)"/><path class="a" d="M64.594,42.727a.553.553,0,0,1-.616-.543l-.4-2.5c-.072-.326.145-.543.616-.652a2.944,2.944,0,0,0,1.884-.761,2.722,2.722,0,0,0,.543-1.884V21.2a.517.517,0,0,1,.58-.58h3.406a.517.517,0,0,1,.58.58V35.879a7.252,7.252,0,0,1-1.594,5.109A7.218,7.218,0,0,1,64.594,42.727ZM68.87,17.944a2.746,2.746,0,0,1-1.92-.725,2.391,2.391,0,0,1-.8-1.775,2.268,2.268,0,0,1,.8-1.775,2.719,2.719,0,0,1,1.92-.688,2.866,2.866,0,0,1,1.884.688,2.334,2.334,0,0,1,.8,1.775,2.268,2.268,0,0,1-.8,1.775A2.658,2.658,0,0,1,68.87,17.944Z" transform="translate(76.35 -12.908)"/><path class="a" d="M74.771,30.5a8.446,8.446,0,0,1-5.978-2.138A7.318,7.318,0,0,1,66.51,22.75,7.423,7.423,0,0,1,68.72,17.1a8.057,8.057,0,0,1,5.8-2.138,7.688,7.688,0,0,1,5.725,2.1,7.537,7.537,0,0,1,2.138,5.58v1.051a.568.568,0,0,1-.616.507h-10.8a3.738,3.738,0,0,0,1.449,2.138,4.31,4.31,0,0,0,2.536.8,3.124,3.124,0,0,0,2.464-.906,1.1,1.1,0,0,1,.725-.29h3.37a.626.626,0,0,1,.471.181.377.377,0,0,1,0,.435A5.993,5.993,0,0,1,79.3,29.489,10.157,10.157,0,0,1,74.771,30.5Zm-3.913-9.022h7.21a3.317,3.317,0,0,0-.978-2.319,3.438,3.438,0,0,0-2.428-.87,3.752,3.752,0,0,0-2.5.87A3.517,3.517,0,0,0,70.858,21.482Z" transform="translate(84.072 -7.713)"/><path class="a" d="M84.681,15.219a.508.508,0,0,1,.435.652l-.4,2.9a.49.49,0,0,1-.652.435,7.933,7.933,0,0,0-1.667-.145,4.1,4.1,0,0,0-2.862,1.051,3.687,3.687,0,0,0-1.123,2.862v6.486a.5.5,0,0,1-.58.58h-3.37a.5.5,0,0,1-.58-.58V20a1.02,1.02,0,0,0-1.159-1.159c-.072,0-.29.036-.652.072-.435,0-.652-.145-.652-.471V15.98a.607.607,0,0,1,.435-.652,6.226,6.226,0,0,1,2.174-.362,3.649,3.649,0,0,1,3.66,2.065,6.245,6.245,0,0,1,4.891-2.065A5.843,5.843,0,0,1,84.681,15.219Z" transform="translate(96.952 -7.719)"/><path class="a" d="M84.021,30.5a8.446,8.446,0,0,1-5.978-2.138A7.318,7.318,0,0,1,75.76,22.75,7.423,7.423,0,0,1,77.97,17.1a8.057,8.057,0,0,1,5.8-2.138,7.688,7.688,0,0,1,5.725,2.1,7.537,7.537,0,0,1,2.138,5.58v1.051a.568.568,0,0,1-.616.507h-10.8a3.738,3.738,0,0,0,1.449,2.138,4.31,4.31,0,0,0,2.536.8,3.124,3.124,0,0,0,2.464-.906,1.1,1.1,0,0,1,.725-.29h3.37a.626.626,0,0,1,.471.181.377.377,0,0,1,0,.435,5.993,5.993,0,0,1-2.681,2.935A10.157,10.157,0,0,1,84.021,30.5Zm-3.913-9.022h7.21a3.317,3.317,0,0,0-.978-2.319,3.438,3.438,0,0,0-2.428-.87,3.752,3.752,0,0,0-2.5.87A3.517,3.517,0,0,0,80.108,21.482Z" transform="translate(108.337 -7.713)"/><path class="a" d="M88.174,30.5a9.825,9.825,0,0,1-5.145-1.232,4.736,4.736,0,0,1-2.319-3.478c-.072-.4.145-.616.58-.616l2.935.036a.775.775,0,0,1,.652.435c.435,1.087,1.522,1.63,3.3,1.63a3.6,3.6,0,0,0,1.775-.362,1.163,1.163,0,0,0,.688-.978c0-.507-.326-.906-.978-1.123a11.52,11.52,0,0,0-2.355-.507,24.465,24.465,0,0,1-2.754-.507A4.793,4.793,0,0,1,82.2,22.46a3.761,3.761,0,0,1-.978-2.754,4.04,4.04,0,0,1,1.848-3.442,8.2,8.2,0,0,1,4.855-1.3,8.79,8.79,0,0,1,4.746,1.2,4.4,4.4,0,0,1,2.21,3.152c.072.4-.109.616-.543.616H91.362a.672.672,0,0,1-.616-.362A2.114,2.114,0,0,0,89.7,18.511a3.843,3.843,0,0,0-1.739-.4,3.392,3.392,0,0,0-1.7.362,1.024,1.024,0,0,0-.652.906,1.277,1.277,0,0,0,.978,1.2,9.635,9.635,0,0,0,2.391.58c.942.145,1.848.326,2.79.543a4.958,4.958,0,0,1,2.355,1.341,3.819,3.819,0,0,1,.978,2.754,3.967,3.967,0,0,1-1.884,3.478A9.07,9.07,0,0,1,88.174,30.5Z" transform="translate(121.286 -7.713)"/><path class="a" d="M105.175,15.09a.494.494,0,0,1,.435.181.532.532,0,0,1,0,.471l-7.5,16.667c-1.449,3.188-3.7,4.746-6.7,4.746a11.872,11.872,0,0,1-3.551-.471.49.49,0,0,1-.435-.652l.4-2.572c.109-.4.326-.543.652-.471a10.718,10.718,0,0,0,2.283.254,3.111,3.111,0,0,0,3.116-1.957l.616-1.341-7.138-14.2a.377.377,0,0,1,0-.471.572.572,0,0,1,.471-.181h3.587a.7.7,0,0,1,.652.435l4.674,9.384,4.2-9.384a.634.634,0,0,1,.652-.435h3.587Z" transform="translate(138.524 -7.372)"/><path class="a" d="M95.816,34.387c-.4,0-.616-.181-.616-.58V13.88a.544.544,0,0,1,.616-.58h3.551a.5.5,0,0,1,.58.58v8.08h9.747V13.88a.517.517,0,0,1,.58-.58h3.551c.4,0,.616.181.616.58V33.808c0,.4-.217.58-.616.58h-3.551a.5.5,0,0,1-.58-.58V25.945H99.91v7.862a.5.5,0,0,1-.58.58Z" transform="translate(159.333 -12.068)"/><path class="a" d="M115.682,28.366a9.53,9.53,0,0,1-12.029,0,7.318,7.318,0,0,1-2.283-5.616,7.344,7.344,0,0,1,2.283-5.652,9.53,9.53,0,0,1,12.029,0,7.344,7.344,0,0,1,2.283,5.652A7.582,7.582,0,0,1,115.682,28.366Zm-8.913-2.681a3.908,3.908,0,0,0,2.862,1.087,3.851,3.851,0,0,0,2.862-1.087,3.966,3.966,0,0,0,1.087-2.935,3.966,3.966,0,0,0-1.087-2.935,3.794,3.794,0,0,0-2.862-1.123,3.74,3.74,0,0,0-2.862,1.123,4.023,4.023,0,0,0-1.087,2.935A4.082,4.082,0,0,0,106.769,25.685Z" transform="translate(175.519 -7.713)"/><path class="a" d="M127.811,14.95a6.447,6.447,0,0,1,4.746,1.812,6.539,6.539,0,0,1,1.775,4.819v7.862c0,.4-.217.58-.616.58h-3.37a.5.5,0,0,1-.58-.58V22.2a3.619,3.619,0,0,0-.833-2.464,2.924,2.924,0,0,0-2.246-.942,2.426,2.426,0,0,0-1.993.906,3.473,3.473,0,0,0-.761,2.355v7.391a.5.5,0,0,1-.58.58h-3.406a.5.5,0,0,1-.58-.58V22.2a3.6,3.6,0,0,0-.8-2.464,2.548,2.548,0,0,0-2.065-.942,2.819,2.819,0,0,0-2.21.906,3.335,3.335,0,0,0-.833,2.355v7.391a.5.5,0,0,1-.58.58h-3.37a.5.5,0,0,1-.58-.58V19.986a1.02,1.02,0,0,0-1.159-1.159c-.072,0-.29.036-.652.072-.435,0-.652-.145-.652-.471V15.965a.607.607,0,0,1,.435-.652,5.7,5.7,0,0,1,2.174-.362,3.633,3.633,0,0,1,3.551,1.848,6.9,6.9,0,0,1,5.109-1.848,5.745,5.745,0,0,1,4.746,2.138A6.852,6.852,0,0,1,127.811,14.95Z" transform="translate(188.897 -7.74)"/><path class="a" d="M123.836,20.17a7.759,7.759,0,0,1,5.725,2.174,7.506,7.506,0,0,1,2.21,5.616,7.506,7.506,0,0,1-2.21,5.616,7.816,7.816,0,0,1-5.725,2.174,6.631,6.631,0,0,1-4.2-1.341v.254c0,.4-.217.58-.616.58h-3.3a.5.5,0,0,1-.58-.58V13.54a.517.517,0,0,1,.58-.58h3.406a.5.5,0,0,1,.58.58v7.9A6.9,6.9,0,0,1,123.836,20.17ZM120.72,31.04a3.542,3.542,0,0,0,2.754,1.2,3.618,3.618,0,0,0,2.79-1.2A4.351,4.351,0,0,0,127.35,28a4.381,4.381,0,0,0-1.087-3.08,3.618,3.618,0,0,0-2.79-1.2,3.542,3.542,0,0,0-2.754,1.2A4.381,4.381,0,0,0,119.633,28,4.351,4.351,0,0,0,120.72,31.04Z" transform="translate(211.641 -12.96)"/><path class="a" d="M133.521,15.219a.508.508,0,0,1,.435.652l-.4,2.9a.49.49,0,0,1-.652.435,7.933,7.933,0,0,0-1.667-.145,4.1,4.1,0,0,0-2.862,1.051,3.687,3.687,0,0,0-1.123,2.862v6.486a.5.5,0,0,1-.58.58H123.3a.5.5,0,0,1-.58-.58V20a1.02,1.02,0,0,0-1.159-1.159c-.072,0-.29.036-.652.072-.435,0-.652-.145-.652-.471V15.98a.607.607,0,0,1,.435-.652,6.226,6.226,0,0,1,2.174-.362,3.649,3.649,0,0,1,3.66,2.065,6.245,6.245,0,0,1,4.891-2.065A5.843,5.843,0,0,1,133.521,15.219Z" transform="translate(225.072 -7.719)"/><path class="a" d="M132.861,30.5a8.446,8.446,0,0,1-5.978-2.138A7.318,7.318,0,0,1,124.6,22.75a7.423,7.423,0,0,1,2.21-5.652,8.057,8.057,0,0,1,5.8-2.138,7.688,7.688,0,0,1,5.725,2.1,7.537,7.537,0,0,1,2.138,5.58v1.051a.569.569,0,0,1-.616.507h-10.8a3.738,3.738,0,0,0,1.449,2.138,4.31,4.31,0,0,0,2.536.8,3.124,3.124,0,0,0,2.464-.906,1.1,1.1,0,0,1,.725-.29h3.37a.626.626,0,0,1,.471.181.377.377,0,0,1,0,.435,5.993,5.993,0,0,1-2.681,2.935A10.157,10.157,0,0,1,132.861,30.5Zm-3.913-9.022h7.21a3.317,3.317,0,0,0-.978-2.319,3.438,3.438,0,0,0-2.428-.87,3.752,3.752,0,0,0-2.5.87A3.376,3.376,0,0,0,128.948,21.482Z" transform="translate(236.457 -7.713)"/><path class="a" d="M137.014,30.5a9.825,9.825,0,0,1-5.145-1.232,4.736,4.736,0,0,1-2.319-3.478c-.072-.4.145-.616.58-.616l2.935.036a.775.775,0,0,1,.652.435c.435,1.087,1.522,1.63,3.3,1.63a3.6,3.6,0,0,0,1.775-.362,1.163,1.163,0,0,0,.688-.978c0-.507-.326-.906-.978-1.123a11.52,11.52,0,0,0-2.355-.507,24.466,24.466,0,0,1-2.754-.507,4.794,4.794,0,0,1-2.355-1.341,3.762,3.762,0,0,1-.978-2.754,4.04,4.04,0,0,1,1.848-3.442,8.2,8.2,0,0,1,4.855-1.3,8.79,8.79,0,0,1,4.746,1.2,4.4,4.4,0,0,1,2.21,3.152c.073.4-.109.616-.543.616H140.2a.672.672,0,0,1-.616-.362,2.114,2.114,0,0,0-1.051-1.051,3.843,3.843,0,0,0-1.739-.4,3.392,3.392,0,0,0-1.7.362,1.025,1.025,0,0,0-.652.906,1.277,1.277,0,0,0,.978,1.2,9.635,9.635,0,0,0,2.391.58c.942.145,1.848.326,2.79.543a4.958,4.958,0,0,1,2.355,1.341,3.82,3.82,0,0,1,.978,2.754,3.967,3.967,0,0,1-1.884,3.478A9.071,9.071,0,0,1,137.014,30.5Z" transform="translate(249.406 -7.713)"/></g></svg>